<?xml version="1.0" standalone="no"?>
<!DOCTYPE svg PUBLIC "-//W3C//DTD SVG 20010904//EN"
 "http://www.w3.org/TR/2001/REC-SVG-20010904/DTD/svg10.dtd">
<svg version="1.0" xmlns="http://www.w3.org/2000/svg"
 width="842.000000pt" height="842.000000pt" viewBox="0 0 842.000000 842.000000"
 preserveAspectRatio="xMidYMid meet">
<metadata>
Created by potrace 1.14, written by Peter Selinger 2001-2017
</metadata>
<g transform="translate(0.000000,842.000000) scale(0.100000,-0.100000)"
fill="#000000" stroke="none">
<path d="M3258 4775 c-2 -2 -34 -5 -73 -9 -38 -3 -95 -10 -125 -16 -30 -6 -68
-13 -85 -16 -39 -6 -106 -23 -125 -31 -8 -4 -17 -7 -20 -8 -11 -4 -47 -19 -90
-37 -53 -23 -198 -106 -205 -119 -3 -5 27 11 67 35 152 89 326 142 548 166 78
8 451 5 530 -4 25 -3 70 -8 100 -11 30 -3 69 -7 85 -10 17 -2 48 -6 70 -9 22
-3 72 -10 110 -16 39 -6 84 -13 100 -16 17 -2 41 -6 55 -9 14 -3 39 -7 55 -9
34 -5 67 -11 180 -31 133 -24 139 -25 174 -31 18 -3 43 -8 55 -10 39 -8 430
-72 476 -78 25 -4 56 -8 70 -10 23 -4 100 -13 179 -22 18 -2 63 -5 100 -8 91
-6 34 10 -66 19 -43 4 -80 8 -83 10 -3 2 -30 6 -60 10 -30 3 -62 8 -70 10 -14
4 -66 12 -129 20 -17 2 -38 6 -48 9 -10 3 -34 7 -53 10 -19 3 -45 8 -56 10
-12 2 -37 7 -55 10 -19 3 -45 8 -59 11 -14 3 -63 12 -110 21 -122 23 -120 23
-175 34 -27 5 -63 12 -80 14 -70 12 -101 17 -115 21 -8 2 -33 7 -55 10 -23 3
-50 7 -60 9 -59 11 -217 36 -260 41 -27 3 -81 10 -120 15 -130 17 -229 23
-402 25 -95 1 -174 1 -175 0z"/>
<path d="M3650 4636 c0 -2 11 -6 25 -8 13 -3 22 -1 19 3 -5 9 -44 13 -44 5z"/>
<path d="M3748 4623 c7 -3 16 -2 19 1 4 3 -2 6 -13 5 -11 0 -14 -3 -6 -6z"/>
<path d="M3782 4624 c7 -6 33 -10 113 -18 33 -4 71 -8 85 -11 14 -2 48 -6 75
-9 75 -8 127 -15 155 -21 14 -3 45 -7 70 -10 25 -3 52 -7 60 -9 8 -1 33 -6 55
-10 22 -4 60 -11 85 -16 25 -6 56 -12 70 -14 24 -5 44 -9 102 -22 15 -3 31
-10 34 -16 4 -6 3 -9 -2 -5 -25 15 -611 25 -774 13 -36 -3 -104 -8 -151 -11
-47 -3 -95 -7 -105 -9 -10 -2 -41 -7 -69 -10 -27 -4 -72 -11 -100 -16 -27 -6
-59 -12 -70 -14 -37 -7 -150 -37 -190 -51 -41 -13 -213 -50 -275 -59 -19 -2
-62 -8 -95 -12 -33 -3 -69 -8 -80 -10 -48 -9 -263 -18 -410 -17 -202 1 -343
10 -425 28 -61 14 -134 24 -139 20 -2 -3 -2 -5 2 -5 3 0 39 -7 79 -16 117 -25
177 -34 273 -41 168 -13 619 -6 700 11 11 2 47 7 80 10 33 4 67 9 76 12 10 2
30 7 45 9 52 7 203 46 280 71 42 13 178 38 269 49 28 4 61 8 75 11 158 26 933
25 1195 -2 27 -2 47 -3 44 0 -4 4 -154 55 -179 61 -8 2 -51 13 -95 24 -44 11
-96 22 -115 25 -19 3 -48 8 -65 11 -101 19 -151 27 -183 30 -21 2 -53 6 -72 9
-47 7 -127 16 -275 31 -115 12 -158 15 -153 9z"/>
<path d="M5636 4458 c3 -5 10 -6 15 -3 13 9 11 12 -6 12 -8 0 -12 -4 -9 -9z"/>
<path d="M4987 4344 c-1 -1 -53 -5 -114 -8 -277 -13 -384 -41 -345 -89 13 -16
120 -45 187 -52 230 -22 234 -22 650 -30 198 -4 357 -4 354 -1 -3 4 -75 8
-160 11 -271 8 -493 16 -529 20 -19 2 -82 6 -139 10 -58 3 -108 8 -111 10 -4
2 -29 7 -56 10 -27 3 -56 7 -64 9 -8 1 -32 6 -53 11 -109 22 -17 41 288 60
163 10 708 28 878 29 42 0 77 3 77 7 0 7 -856 10 -863 3z"/>
<path d="M1736 4322 c-3 -5 1 -9 9 -9 8 0 12 4 9 9 -3 4 -7 8 -9 8 -2 0 -6 -4
-9 -8z"/>
<path d="M1775 4320 c-3 -5 -1 -10 4 -10 6 0 11 5 11 10 0 6 -2 10 -4 10 -3 0
-8 -4 -11 -10z"/>
<path d="M3949 4255 c-24 -7 -60 -19 -79 -28 -42 -19 -120 -84 -120 -100 0 -7
5 -4 11 5 27 47 160 109 243 113 213 10 403 -193 390 -416 -5 -92 -12 -121
-45 -186 -39 -76 -110 -145 -187 -181 -48 -22 -71 -27 -142 -26 -72 0 -94 4
-147 28 -35 16 -63 32 -63 36 0 4 -12 12 -27 19 l-28 12 25 -21 c128 -107 285
-130 423 -62 305 151 317 613 20 770 -90 47 -188 60 -274 37z"/>
<path d="M1415 4211 c-39 -18 -115 -71 -102 -71 3 0 26 13 50 30 125 84 311
36 399 -105 42 -68 59 -130 59 -223 0 -194 -124 -348 -291 -360 -57 -4 -76 -1
-122 20 -30 14 -72 40 -93 58 -28 23 -25 18 9 -15 65 -62 123 -87 206 -88 177
-2 324 158 335 362 2 52 -1 85 -19 159 -23 100 -133 212 -237 242 -55 16 -150
12 -194 -9z"/>
<path d="M5730 4168 c0 -5 26 -7 58 -7 61 1 55 6 -15 11 -24 2 -43 0 -43 -4z"/>
<path d="M2737 4054 c-8 -16 -54 -121 -102 -234 -48 -113 -89 -208 -91 -212
-3 -5 10 -8 29 -8 33 0 35 3 56 58 31 85 29 83 112 84 41 0 81 0 89 -1 9 -1
27 -31 44 -71 27 -67 30 -70 62 -70 l33 0 -33 78 c-18 42 -43 97 -54 122 -11
25 -42 95 -68 155 -26 61 -51 114 -55 119 -4 4 -14 -5 -22 -20z m52 -170 c22
-55 30 -89 23 -93 -16 -10 -127 -6 -127 5 0 15 59 174 65 174 3 0 20 -39 39
-86z"/>
<path d="M3360 4070 c-60 -12 -92 -29 -131 -71 -53 -56 -73 -114 -66 -189 8
-94 62 -165 152 -204 33 -14 142 -15 182 -1 32 11 39 18 41 44 4 35 2 36 -38
16 -121 -63 -266 16 -276 150 -7 85 36 159 112 191 40 17 130 13 172 -8 l32
-16 0 29 c0 21 -7 32 -27 43 -35 17 -107 25 -153 16z"/>
<path d="M1005 4060 c-11 -5 -58 -49 -104 -99 -47 -50 -87 -91 -90 -91 -3 0
-5 43 -5 95 l1 95 -28 0 -29 0 0 -231 0 -230 28 3 27 3 2 100 c2 154 0 145 27
110 25 -31 41 -50 105 -125 22 -25 48 -55 58 -68 15 -19 26 -23 57 -20 l38 3
-57 65 c-32 36 -82 92 -111 125 l-53 60 96 97 c53 54 94 101 90 105 -11 10
-29 11 -52 3z"/>
<path d="M2004 4052 c-7 -7 -11 -19 -8 -26 4 -10 30 -13 106 -12 55 0 102 -2
104 -6 2 -3 -50 -90 -116 -192 -67 -103 -123 -193 -127 -201 -4 -13 20 -15
166 -15 l171 0 0 25 0 25 -125 0 c-69 0 -125 2 -125 5 0 2 56 90 125 195 69
105 125 195 125 201 0 11 8 10 -154 12 -94 2 -133 -2 -142 -11z"/>
<path d="M3870 4063 c-13 -3 -15 -34 -14 -216 1 -116 2 -220 3 -229 1 -13 9
-18 29 -18 l27 0 0 120 c0 66 3 120 7 120 4 0 8 -3 8 -7 0 -5 12 -21 26 -38
14 -16 42 -50 62 -74 97 -116 105 -123 144 -119 l37 3 -35 40 c-20 22 -48 54
-62 70 -15 17 -49 56 -75 87 l-49 57 103 101 c102 100 104 106 44 101 -11 -1
-61 -44 -112 -96 -50 -52 -93 -95 -96 -95 -2 0 -4 41 -3 91 1 94 -6 111 -44
102z"/>
<path d="M4583 4062 c-21 -3 -21 -5 -21 -233 l0 -229 29 0 29 0 0 229 c0 127
-3 231 -7 233 -5 2 -18 2 -30 0z"/>
<path d="M4893 4062 l-33 -3 0 -230 0 -229 125 0 125 0 0 25 c0 27 -14 30
-137 26 -31 -1 -53 2 -54 8 0 6 -1 43 -1 81 0 39 1 74 1 78 1 5 44 8 96 8 l96
-1 -3 25 c-3 25 -5 25 -90 25 -48 0 -90 3 -93 7 -6 6 -9 65 -6 116 1 9 27 12
96 12 l95 0 0 28 0 27 -93 0 c-50 0 -107 -1 -124 -3z"/>
<path d="M5555 4060 l-30 -5 0 -225 0 -225 28 -3 c31 -4 30 -7 28 143 l-2 81
93 -1 c94 -1 109 4 101 34 -4 14 -18 17 -96 16 l-92 0 -2 68 -2 67 93 0 c78 0
95 3 100 17 4 9 3 20 -2 25 -10 10 -169 16 -217 8z"/>
<path d="M6767 4062 c-21 -4 -22 -13 -22 -247 l1 -210 31 -3 32 -3 -2 110 c-2
61 0 111 4 111 3 0 41 -49 85 -110 76 -106 80 -109 117 -110 45 0 48 -5 -50
116 -40 51 -73 95 -73 98 0 3 16 6 35 6 112 0 144 182 39 226 -32 13 -157 24
-197 16z m167 -64 c32 -14 44 -64 24 -105 -12 -26 -18 -28 -81 -31 l-67 -4 -1
39 c-1 21 -2 52 -3 68 -1 17 0 33 2 38 5 11 98 8 126 -5z"/>
<path d="M7625 4063 c-11 -2 -25 -14 -31 -26 -19 -41 -86 -162 -92 -169 -4 -4
-32 38 -62 92 -54 98 -56 99 -92 100 l-37 0 77 -127 77 -128 0 -99 c0 -93 1
-99 22 -107 32 -12 37 3 38 112 l0 95 65 110 c36 60 68 117 72 126 7 18 -6 26
-37 21z"/>
<path d="M6077 4053 c-4 -3 -7 -79 -7 -168 0 -179 7 -211 58 -256 32 -29 75
-42 131 -40 72 2 112 20 148 67 l28 37 3 184 4 184 -29 -3 -28 -3 -2 -158 c-1
-172 -9 -206 -53 -237 -45 -32 -126 -27 -165 10 -33 31 -38 68 -38 243 1 146
1 147 -21 147 -13 0 -26 -3 -29 -7z"/>
<path d="M2508 3536 c-1 -2 -79 -6 -173 -10 -159 -6 -266 -14 -273 -21 -2 -2
97 -3 220 -2 197 1 474 -7 668 -18 36 -2 112 -6 170 -10 229 -13 284 -17 291
-21 4 -2 10 0 13 4 5 8 -15 12 -154 27 -25 3 -63 7 -85 10 -137 16 -227 22
-460 30 -104 4 -195 8 -202 10 -6 2 -13 2 -15 1z"/>
</g>
</svg>
